{
  "accessors": [
    {
      "bufferView": 2,
      "componentType": 5126,
      "count": 2392,
      "max": [
        13.49355411529541,
        17.409685134887695,
        4.7597808837890625
      ],
      "min": [
        -13.493553161621094,
        -0.011611985974013805,
        -3.7358455657958984
      ],
      "type": "VEC3"
    },
    {
      "bufferView": 2,
      "byteOffset": 28704,
      "componentType": 5126,
      "count": 2392,
      "max": [
        0.9980506896972656,
        0.9998772740364075,
        0.9996762275695801
      ],
      "min": [
        -0.9980506896972656,
        -0.9999307990074158,
        -0.9995558261871338
      ],
      "type": "VEC3"
    },
    {
      "bufferView": 3,
      "componentType": 5126,
      "count": 2392,
      "max": [
        1.0,
        0.9991095662117004,
        1.0,
        1.0
      ],
      "min": [
        -1.0,
        -0.9961079359054565,
        -0.9999947547912598,
        -1.0
      ],
      "type": "VEC4"
    },
    {
      "bufferView": 1,
      "componentType": 5126,
      "count": 2392,
      "max": [
        -1.0051219463348389,
        0.9964138269424438
      ],
      "min": [
        -1.995877981185913,
        0.0048449039459228516
      ],
      "type": "VEC2"
    },
    {
      "bufferView": 1,
      "byteOffset": 19136,
      "componentType": 5126,
      "count": 2392,
      "max": [
        0.9322041869163513,
        0.9844967722892761
      ],
      "min": [
        0.014679180458188057,
        0.01550316996872425
      ],
      "type": "VEC2"
    },
    {
      "bufferView": 0,
      "componentType": 5125,
      "count": 9732,
      "type": "SCALAR"
    },
    {
      "bufferView": 2,
      "byteOffset": 57408,
      "componentType": 5126,
      "count": 424,
      "max": [
        4.714837074279785,
        15.322617530822754,
        3.8790056705474854
      ],
      "min": [
        -4.714837074279785,
        8.801962852478027,
        -2.3555915355682373
      ],
      "type": "VEC3"
    },
    {
      "bufferView": 2,
      "byteOffset": 62496,
      "componentType": 5126,
      "count": 424,
      "max": [
        0.998930811882019,
        0.9085660576820374,
        0.9952096939086914
      ],
      "min": [
        -0.998930811882019,
        -0.9984959363937378,
        -0.9805561900138855
      ],
      "type": "VEC3"
    },
    {
      "bufferView": 3,
      "byteOffset": 38272,
      "componentType": 5126,
      "count": 424,
      "max": [
        1.0,
        0.9274389743804932,
        0.9957023859024048,
        1.0
      ],
      "min": [
        -0.9976596832275391,
        -0.9987853169441223,
        -0.9984962940216064,
        -1.0
      ],
      "type": "VEC4"
    },
    {
      "bufferView": 1,
      "byteOffset": 38272,
      "componentType": 5126,
      "count": 424,
      "max": [
        0.9924061894416809,
        0.9884381294250488
      ],
      "min": [
        0.017281169071793556,
        0.0051382179372012615
      ],
      "type": "VEC2"
    },
    {
      "bufferView": 1,
      "byteOffset": 41664,
      "componentType": 5126,
      "count": 424,
      "max": [
        0.9347524046897888,
        0.9844967722892761
      ],
      "min": [
        0.0014801250072196126,
        0.01550316996872425
      ],
      "type": "VEC2"
    },
    {
      "bufferView": 0,
      "byteOffset": 38928,
      "componentType": 5125,
      "count": 1779,
      "type": "SCALAR"
    },
    {
      "bufferView": 2,
      "byteOffset": 67584,
      "componentType": 5126,
      "count": 424,
      "max": [
        4.714837074279785,
        15.322617530822754,
        3.8790056705474854
      ],
      "min": [
        -4.714837074279785,
        8.801962852478027,
        -2.3555915355682373
      ],
      "type": "VEC3"
    },
    {
      "bufferView": 2,
      "byteOffset": 72672,
      "componentType": 5126,
      "count": 424,
      "max": [
        0.998930811882019,
        0.9085660576820374,
        0.9952096939086914
      ],
      "min": [
        -0.998930811882019,
        -0.9984959363937378,
        -0.9805561900138855
      ],
      "type": "VEC3"
    },
    {
      "bufferView": 3,
      "byteOffset": 45056,
      "componentType": 5126,
      "count": 424,
      "max": [
        1.0,
        0.9274389743804932,
        0.9957023859024048,
        1.0
      ],
      "min": [
        -0.9976596832275391,
        -0.9987853169441223,
        -0.9984962940216064,
        -1.0
      ],
      "type": "VEC4"
    },
    {
      "bufferView": 1,
      "byteOffset": 45056,
      "componentType": 5126,
      "count": 424,
      "max": [
        0.9924061894416809,
        0.9884381294250488
      ],
      "min": [
        0.017281169071793556,
        0.0051382179372012615
      ],
      "type": "VEC2"
    },
    {
      "bufferView": 1,
      "byteOffset": 48448,
      "componentType": 5126,
      "count": 424,
      "max": [
        0.9347524046897888,
        0.9844967722892761
      ],
      "min": [
        0.0014801250072196126,
        0.01550316996872425
      ],
      "type": "VEC2"
    },
    {
      "bufferView": 0,
      "byteOffset": 46044,
      "componentType": 5125,
      "count": 1779,
      "type": "SCALAR"
    },
    {
      "bufferView": 2,
      "byteOffset": 77760,
      "componentType": 5126,
      "count": 2392,
      "max": [
        13.49355411529541,
        17.409685134887695,
        4.7597808837890625
      ],
      "min": [
        -13.493553161621094,
        -0.011611985974013805,
        -3.7358455657958984
      ],
      "type": "VEC3"
    },
    {
      "bufferView": 2,
      "byteOffset": 106464,
      "componentType": 5126,
      "count": 2392,
      "max": [
        0.9980506896972656,
        0.9998772740364075,
        0.9996762275695801
      ],
      "min": [
        -0.9980506896972656,
        -0.9999307990074158,
        -0.9995558261871338
      ],
      "type": "VEC3"
    },
    {
      "bufferView": 3,
      "byteOffset": 51840,
      "componentType": 5126,
      "count": 2392,
      "max": [
        1.0,
        0.9991095662117004,
        1.0,
        1.0
      ],
      "min": [
        -1.0,
        -0.9961079359054565,
        -0.9999947547912598,
        -1.0
      ],
      "type": "VEC4"
    },
    {
      "bufferView": 1,
      "byteOffset": 51840,
      "componentType": 5126,
      "count": 2392,
      "max": [
        -1.0051219463348389,
        0.9964138269424438
      ],
      "min": [
        -1.995877981185913,
        0.0048449039459228516
      ],
      "type": "VEC2"
    },
    {
      "bufferView": 1,
      "byteOffset": 70976,
      "componentType": 5126,
      "count": 2392,
      "max": [
        0.9322041869163513,
        0.9844967722892761
      ],
      "min": [
        0.014679180458188057,
        0.01550316996872425
      ],
      "type": "VEC2"
    },
    {
      "bufferView": 0,
      "byteOffset": 53160,
      "componentType": 5125,
      "count": 9732,
      "type": "SCALAR"
    }
  ],
  "asset": {
    "extras": {
      "author": "Austin Zimmermann (https://sketchfab.com/AustinZimmermann)",
      "license": "CC-BY-4.0 (http://creativecommons.org/licenses/by/4.0/)",
      "source": "https://sketchfab.com/3d-models/wario-mario-kart-8-deluxe-42529e62dc7246cfa7471c3b762e9436",
      "title": "Wario (Mario Kart 8 Deluxe)"
    },
    "generator": "Sketchfab-16.31.0",
    "version": "2.0"
  },
  "bufferViews": [
    {
      "buffer": 0,
      "byteLength": 92088,
      "name": "floatBufferViews",
      "target": 34963
    },
    {
      "buffer": 0,
      "byteLength": 90112,
      "byteOffset": 92088,
      "byteStride": 8,
      "name": "floatBufferViews",
      "target": 34962
    },
    {
      "buffer": 0,
      "byteLength": 135168,
      "byteOffset": 182200,
      "byteStride": 12,
      "name": "floatBufferViews",
      "target": 34962
    },
    {
      "buffer": 0,
      "byteLength": 90112,
      "byteOffset": 317368,
      "byteStride": 16,
      "name": "floatBufferViews",
      "target": 34962
    }
  ],
  "buffers": [
    {
      "byteLength": 407480,
      "uri": "scene.bin"
    }
  ],
  "extensionsUsed": [
    "KHR_materials_specular"
  ],
  "images": [
    {
      "uri": "textures/material_0_baseColor.png"
    },
    {
      "uri": "textures/material_0_normal.png"
    },
    {
      "uri": "textures/material_0_specularf0.png"
    },
    {
      "uri": "textures/material_1_baseColor.png"
    },
    {
      "uri": "textures/material_1_normal.png"
    },
    {
      "uri": "textures/material_1_specularf0.png"
    }
  ],
  "materials": [
    {
      "doubleSided": true,
      "extensions": {
        "KHR_materials_specular": {
          "specularColorFactor": [
            1.0,
            1.0,
            1.0
          ],
          "specularFactor": 1.0,
          "specularTexture": {
            "index": 2
          }
        }
      },
      "name": "material_0",
      "normalTexture": {
        "index": 1
      },
      "pbrMetallicRoughness": {
        "baseColorTexture": {
          "index": 0
        },
        "metallicFactor": 0.0,
        "roughnessFactor": 0.6
      }
    },
    {
      "doubleSided": true,
      "extensions": {
        "KHR_materials_specular": {
          "specularColorFactor": [
            1.0,
            1.0,
            1.0
          ],
          "specularFactor": 1.0,
          "specularTexture": {
            "index": 5
          }
        }
      },
      "name": "material_1",
      "normalTexture": {
        "index": 4
      },
      "pbrMetallicRoughness": {
        "baseColorTexture": {
          "index": 3
        },
        "metallicFactor": 0.0,
        "roughnessFactor": 0.6
      }
    }
  ],
  "meshes": [
    {
      "name": "Object_0",
      "primitives": [
        {
          "attributes": {
            "NORMAL": 1,
            "POSITION": 0,
            "TANGENT": 2,
            "TEXCOORD_0": 3,
            "TEXCOORD_1": 4
          },
          "indices": 5,
          "material": 0,
          "mode": 4
        }
      ]
    },
    {
      "name": "Object_1",
      "primitives": [
        {
          "attributes": {
            "NORMAL": 7,
            "POSITION": 6,
            "TANGENT": 8,
            "TEXCOORD_0": 9,
            "TEXCOORD_1": 10
          },
          "indices": 11,
          "material": 1,
          "mode": 4
        }
      ]
    },
    {
      "name": "Object_2",
      "primitives": [
        {
          "attributes": {
            "NORMAL": 13,
            "POSITION": 12,
            "TANGENT": 14,
            "TEXCOORD_0": 15,
            "TEXCOORD_1": 16
          },
          "indices": 17,
          "material": 1,
          "mode": 4
        }
      ]
    },
    {
      "name": "Object_3",
      "primitives": [
        {
          "attributes": {
            "NORMAL": 19,
            "POSITION": 18,
            "TANGENT": 20,
            "TEXCOORD_0": 21,
            "TEXCOORD_1": 22
          },
          "indices": 23,
          "material": 0,
          "mode": 4
        }
      ]
    }
  ],
  "nodes": [
    {
      "children": [
        1
      ],
      "matrix": [
        1.0,
        0.0,
        0.0,
        0.0,
        0.0,
        2.220446049250313e-16,
        -1.0,
        0.0,
        0.0,
        1.0,
        2.220446049250313e-16,
        0.0,
        0.0,
        0.0,
        0.0,
        1.0
      ],
      "name": "Sketchfab_model"
    },
    {
      "children": [
        2
      ],
      "matrix": [
        1.0,
        0.0,
        0.0,
        0.0,
        0.0,
        -4.371139006309477e-08,
        0.999999999999999,
        0.0,
        0.0,
        -0.999999999999999,
        -4.371139006309477e-08,
        0.0,
        0.0,
        0.0,
        0.0,
        1.0
      ],
      "name": "Collada visual scene group"
    },
    {
      "children": [
        3
      ],
      "name": "Armature"
    },
    {
      "children": [
        4,
        5,
        6,
        7
      ],
      "name": "Object_3"
    },
    {
      "mesh": 0,
      "name": "Object_4"
    },
    {
      "mesh": 1,
      "name": "Object_5"
    },
    {
      "mesh": 2,
      "name": "Object_6"
    },
    {
      "mesh": 3,
      "name": "Object_7"
    }
  ],
  "samplers": [
    {
      "magFilter": 9729,
      "minFilter": 9987,
      "wrapS": 10497,
      "wrapT": 10497
    }
  ],
  "scene": 0,
  "scenes": [
    {
      "name": "Sketchfab_Scene",
      "nodes": [
        0
      ]
    }
  ],
  "textures": [
    {
      "sampler": 0,
      "source": 0
    },
    {
      "sampler": 0,
      "source": 1
    },
    {
      "sampler": 0,
      "source": 2
    },
    {
      "sampler": 0,
      "source": 3
    },
    {
      "sampler": 0,
      "source": 4
    },
    {
      "sampler": 0,
      "source": 5
    }
  ]
}
